<?xml version="1.0" encoding="utf-8"?>
<!-- Generator: Adobe Illustrator 25.2.3, SVG Export Plug-In . SVG Version: 6.00 Build 0)  -->
<svg version="1.1" id="Layer_1" xmlns="http://www.w3.org/2000/svg" xmlns:xlink="http://www.w3.org/1999/xlink" x="0px" y="0px"
	 viewBox="0 0 1907.73 697.15" style="enable-background:new 0 0 1907.73 697.15;" xml:space="preserve">
<style type="text/css">
	.st0{fill:url(#SVGID_1_);}
	.st1{fill:url(#SVGID_2_);}
	.st2{fill:url(#SVGID_3_);}
	.st3{fill:url(#SVGID_4_);}
	.st4{fill:url(#SVGID_5_);}
	.st5{fill:#333333;}
</style>
<g>
	<linearGradient id="SVGID_1_" gradientUnits="userSpaceOnUse" x1="165.129" y1="146.6304" x2="165.129" y2="560.1612">
		<stop  offset="0" style="stop-color:#FF8000"/>
		<stop  offset="1" style="stop-color:#009EFF"/>
	</linearGradient>
	<path class="st0" d="M175.85,139.01c21-7.36,43.57-5.12,65.4-5.51c0.05,17.48-0.12,34.97,0.14,52.45c-11.67,0.61-23.5-1.04-35.05,1
		c-12.7,2.93-19.68,16.38-19.7,28.62c-0.32,26.01,0.1,52.03-0.14,78.05c-0.7,21.8-12.53,41.99-29.71,55.05
		c17.71,12.84,29.34,33.71,29.81,55.68c0.09,24.39-0.02,48.8,0.05,73.18c0.09,7.77,1.26,15.92,5.77,22.47
		c4.15,6.31,11.46,10.26,18.98,10.6c10,0.51,20.02,0.09,30.04,0.14c0.19,17.69,0.03,35.36,0.1,53.03
		c-21.38-0.44-43.39,1.96-64.05-4.81c-19.41-5.97-36.18-20.31-44.19-39.08c-6.91-15.39-7.98-32.57-7.5-49.22
		c-0.03-21.57,0.09-43.15,0-64.72c0.03-10.41-4.12-21.21-12.82-27.35c-6.92-5.27-15.8-6.38-24.19-7.16
		c0.12-15.34-0.34-30.68,0.27-46.01c9.3-0.27,19.08-2.28,26.19-8.69c7.52-6.46,10.71-16.62,10.65-26.29
		c0-22.72,0.03-45.46,0.02-68.18c-0.17-14.51,1.21-29.37,6.75-42.91C140.18,160.39,156.47,145.32,175.85,139.01z"/>
	<linearGradient id="SVGID_2_" gradientUnits="userSpaceOnUse" x1="560.3262" y1="146.6304" x2="560.3262" y2="560.1612">
		<stop  offset="0" style="stop-color:#FF8000"/>
		<stop  offset="1" style="stop-color:#009EFF"/>
	</linearGradient>
	<path class="st1" d="M484.05,133.43c25,0.31,51.53-2.67,74.68,9.01c23.49,10.95,38.27,35.65,40.26,61.08
		c1.77,23.23,0.39,46.58,0.83,69.87c0.39,12.79-2.14,27.09,5.94,38.17c6.77,10.03,19.29,13.73,30.85,13.88
		c-0.03,15.34-0.12,30.68,0,46.04c-11.74,0.53-24.73,4.08-31.31,14.66c-7.79,11.36-4.97,25.73-5.44,38.64
		c-0.48,14.15,0.14,28.3-0.53,42.47c-0.03,14.44,0.7,29.24-3.83,43.18c-5.83,20.99-21.94,38.71-42.33,46.43
		c-21.82,8.98-45.82,6.09-68.8,6.74c0.07-17.54,0.12-35.05-0.09-52.59c11.31-0.49,22.71,0.7,33.95-0.71
		c12.86-2.4,20.27-15.6,20.7-27.84c0.43-19.2,0.03-38.42,0.15-57.62c0.19-13.06-1.21-26.5,3.08-39.1
		c4.27-15.09,14.44-27.82,26.77-37.23c-17.93-12.86-29.71-34.12-29.92-56.3c-0.09-24.37,0.03-48.74-0.07-73.12
		c-0.02-9.98-2.57-20.95-10.75-27.47c-5.6-4.78-13.27-5.53-20.32-5.41c-7.91,0.03-15.83,0.09-23.74,0.03
		C484.08,168.64,484.15,151.03,484.05,133.43z"/>
	<linearGradient id="SVGID_3_" gradientUnits="userSpaceOnUse" x1="356.4912" y1="146.6304" x2="356.4912" y2="560.1612">
		<stop  offset="0" style="stop-color:#FF8000"/>
		<stop  offset="1" style="stop-color:#009EFF"/>
	</linearGradient>
	<path class="st2" d="M484.03,334.77c0,21.16,0.03,42.33-0.01,63.49c-14.78,17.06-30.77,31.67-47.82,42.35
		c-19.23,12.14-39.77,18.59-60.4,20.89c-24.6,2.21-49.56,0.82-73.54-8.67c-26.5-10.03-51.19-29.76-73.33-54.48
		c0.1-21.09,0.1-42.18,0.02-63.25c31.74,34.32,68.17,60.11,106.91,65.24c24.2,2.52,48.82,1.5,72.46-7.74
		C435.89,382.35,461.35,361.11,484.03,334.77z"/>
	<linearGradient id="SVGID_4_" gradientUnits="userSpaceOnUse" x1="431.0143" y1="146.6304" x2="431.0143" y2="560.1612">
		<stop  offset="0" style="stop-color:#FF8000"/>
		<stop  offset="1" style="stop-color:#009EFF"/>
	</linearGradient>
	<path class="st3" d="M465.94,261.1c3.3,11.84,1.97,25.51-5.53,35.53c-6.38,8.57-17.13,13.3-27.72,12.94
		c-9.59,0.61-19.66-1.77-26.89-8.38c-11.58-10.37-13.91-28.17-8.93-42.33c3.81-10.99,13.93-19.3,25.36-21.21
		c9.39-1.46,19.58-1.04,28.03,3.72C457.86,245.51,463.55,252.8,465.94,261.1z"/>
	<linearGradient id="SVGID_5_" gradientUnits="userSpaceOnUse" x1="285.3502" y1="146.6304" x2="285.3502" y2="560.1612">
		<stop  offset="0" style="stop-color:#FF8000"/>
		<stop  offset="1" style="stop-color:#009EFF"/>
	</linearGradient>
	<path class="st4" d="M321.91,272.81c0.31,9.8-2.64,20-9.76,26.99c-10.95,11.28-29.07,12.21-43.13,7.02
		c-23.88-10-27.11-46.87-7.31-62.45c10.09-8.21,24.34-8.9,36.46-5.83C312.9,242.7,322.68,257.74,321.91,272.81z"/>
	<g>
		<path class="st5" d="M976.3,394.19h-61.73l-22.66-66.81h-92.59l-22.27,66.81h-60.16l93.76-253.55h74.23L976.3,394.19z
			 M878.63,286.76l-32.04-95.33h-1.56L813,286.76H878.63z"/>
		<path class="st5" d="M1230.24,394.19h-70.32l-66.42-99.62h-28.13v99.62h-60.95V140.64h114.08c33.34,0,57.69,4.04,73.06,12.11
			c15.36,8.07,23.05,21.88,23.05,41.41v44.54c0,15.37-5.54,27.22-16.6,35.55c-11.07,8.34-24.81,13.54-41.22,15.63L1230.24,394.19z
			 M1154.84,226.59v-17.97c0-9.38-2.8-15.82-8.4-19.34c-5.6-3.52-15.17-5.27-28.72-5.27h-52.35v70.32h52.35
			c14.32,0,24.09-1.88,29.3-5.67C1152.24,244.89,1154.84,237.53,1154.84,226.59z"/>
		<path class="st5" d="M1498.25,394.19h-61.73l-22.66-66.81h-92.59L1299,394.19h-60.16l93.76-253.55h74.23L1498.25,394.19z
			 M1400.58,286.76l-32.04-95.33h-1.56l-32.04,95.33H1400.58z"/>
		<path class="st5" d="M1819,394.19h-55.09V206.67h-1.17l-64.07,187.53h-48.84l-66.03-187.53h-1.56v187.53h-55.87V140.64h86.73
			l62.51,181.28l61.73-181.28H1819V394.19z"/>
	</g>
	<g>
		<path class="st5" d="M796.8,474.47h-28.65v77.46h-22.46v-77.46h-28.8v-15.98h79.91V474.47z"/>
		<path class="st5" d="M937.61,551.94h-22.46v-40.03h-39.74v40.03h-22.46v-93.45h22.46v37.44h39.74v-37.44h22.46V551.94z"/>
		<path class="st5" d="M1073.67,551.94h-72.71v-93.45h71.27v15.98h-48.81v21.45h44.06v15.98h-44.06v24.05h50.25V551.94z"/>
		<path class="st5" d="M1253.73,550.21c-10.56,2.11-20.64,3.17-30.24,3.17c-3.84,0-7.47-0.17-10.87-0.5
			c-3.41-0.34-7.2-1.06-11.37-2.16c-4.18-1.1-7.73-2.59-10.66-4.46c-2.93-1.87-5.4-4.51-7.42-7.92c-2.01-3.4-3.02-7.42-3.02-12.02
			v-41.04c0-18.81,14.45-28.22,43.34-28.22c7.1,0,16.99,1.06,29.66,3.17v16.85c-11.43-2.68-21.22-4.03-29.37-4.03
			c-3.26,0-5.93,0.1-7.99,0.29c-2.06,0.2-4.22,0.67-6.48,1.44c-2.26,0.77-3.94,1.99-5.04,3.67c-1.1,1.68-1.66,3.87-1.66,6.55v39.74
			c0,8.45,7.72,12.67,23.18,12.67c6.82,0,16.13-1.39,27.93-4.17V550.21z"/>
		<path class="st5" d="M1398,485.41v40.89c0,5.28-1.39,9.79-4.18,13.53s-6.53,6.55-11.23,8.42c-4.7,1.87-9.41,3.19-14.11,3.96
			c-4.7,0.77-9.7,1.15-14.98,1.15c-4.99,0-9.67-0.31-14.04-0.94c-4.37-0.62-9.02-1.8-13.97-3.53c-4.94-1.73-8.88-4.51-11.81-8.35
			c-2.93-3.84-4.39-8.59-4.39-14.25v-40.89c0-4.8,1.08-9.02,3.24-12.67c2.16-3.65,4.75-6.43,7.77-8.35
			c3.02-1.92,6.7-3.48,11.02-4.68c4.32-1.2,8.16-1.94,11.52-2.23c3.36-0.29,6.91-0.43,10.65-0.43c3.84,0,7.47,0.14,10.87,0.43
			c3.4,0.29,7.27,1.03,11.59,2.23c4.32,1.2,8.01,2.76,11.09,4.68c3.07,1.92,5.66,4.68,7.77,8.28
			C1396.94,476.27,1398,480.52,1398,485.41z M1375.54,526.31v-41.04c0-4.51-1.85-7.68-5.54-9.5c-3.7-1.82-9.14-2.74-16.34-2.74
			c-7.3,0-12.77,0.89-16.41,2.66c-3.65,1.78-5.47,4.97-5.47,9.58v41.04c0,2.4,0.62,4.39,1.87,5.98c1.25,1.58,3.05,2.71,5.4,3.38
			c2.35,0.67,4.61,1.13,6.77,1.37c2.16,0.24,4.82,0.36,7.99,0.36c3.17,0,5.83-0.12,7.99-0.36c2.16-0.24,4.39-0.7,6.7-1.37
			c2.3-0.67,4.05-1.8,5.26-3.38C1374.94,530.7,1375.54,528.71,1375.54,526.31z"/>
		<path class="st5" d="M1543.42,486.85v38.01c0,10.56-3.26,17.71-9.79,21.45c-6.53,3.74-18,5.61-34.41,5.61h-39.88v-93.45h39.74
			c15.84,0,27.19,1.97,34.05,5.91C1539.99,468.33,1543.42,475.82,1543.42,486.85z M1520.96,524.87v-38.44
			c0-4.51-1.82-7.63-5.47-9.36c-3.65-1.73-9.17-2.59-16.56-2.59h-17.13v61.48h16.41c8.64,0,14.59-0.65,17.85-1.94
			C1519.33,532.71,1520.96,529.67,1520.96,524.87z"/>
		<path class="st5" d="M1677.47,551.94h-72.71v-93.45h71.27v15.98h-48.81v21.45h44.06v15.98h-44.06v24.05h50.25V551.94z"/>
		<path class="st5" d="M1819,551.94h-25.92l-24.48-36.72h-10.37v36.72h-22.46v-93.45h42.04c12.29,0,21.26,1.49,26.92,4.47
			c5.66,2.98,8.49,8.06,8.49,15.26v16.41c0,5.66-2.04,10.03-6.12,13.1c-4.08,3.07-9.14,4.99-15.19,5.76L1819,551.94z
			 M1791.21,490.17v-6.62c0-3.45-1.03-5.83-3.1-7.13c-2.07-1.29-5.59-1.94-10.58-1.94h-19.29v25.92h19.29
			c5.28,0,8.88-0.69,10.8-2.09C1790.25,496.91,1791.21,494.2,1791.21,490.17z"/>
	</g>
</g>
</svg>
